<?xml version="1.0" encoding="UTF-8"?><svg xmlns="http://www.w3.org/2000/svg" viewBox="0 0 244.38 341.53"><defs><style>.k{fill:#fff;}.l{stroke-linecap:round;stroke-linejoin:round;stroke-width:4px;}.l,.m,.n,.o{stroke:#fff;}.l,.n{fill:#5d7254;}.m{fill:#61725a;}.m,.n,.o{stroke-miterlimit:10;stroke-width:6px;}.o{fill:#51604a;}</style></defs><g id="a"/><g id="b"><g id="c"><g id="d"><rect class="n" x="3" y="163.99" width="238.38" height="174.54" rx="43.78" ry="43.78"/><g><rect class="o" x="48.99" y="221.37" width="147.79" height="73.38" rx="7.51" ry="7.51"/><rect class="o" x="111.59" y="231.72" width="22.08" height="44.77" rx="7.18" ry="7.18"/><rect class="o" x="41.56" y="210.75" width="161.96" height="27.82" rx="2.98" ry="2.98"/><circle class="m" cx="122.75" cy="264.56" r=".52"/></g><g><path id="e" class="n" d="M144.38,3h-45.08c-10.8,0-19.55,10.42-19.55,23.28v12.58h84.19v-12.58c0-12.86-8.75-23.28-19.55-23.28Zm5.24,27.36v7.74h-54.28v-7.74c0-7.91-.62-14.33,12.61-14.33h29.07c13.3,0,12.61,6.42,12.61,14.33Z"/><g><g><rect id="f" class="n" x="175.6" y="14.46" width="37.37" height="156.89" rx="12.5" ry="12.5"/><rect id="g" class="n" x="31.61" y="14.46" width="37.37" height="156.89" rx="12.5" ry="12.5"/></g><g id="h"><path class="n" d="M188.07,38.11H56.76c-7.65,0-13.84,6.94-13.84,15.49v111.86c0,8.56,6.2,15.49,13.84,15.49H188.07c7.65,0,13.84-6.94,13.84-15.49V53.6c0-8.56-6.2-15.49-13.84-15.49Z"/><g id="i"><line class="l" x1="87.51" y1="96.58" x2="156.37" y2="96.58"/><ellipse class="k" cx="149.15" cy="99.99" rx="4.44" ry="4.97"/><rect class="k" x="145.2" y="103.39" width="7.9" height="15.87" rx="3.32" ry="3.32"/></g></g></g></g><g id="j"><rect class="o" x="133.99" y="153.81" width="21.84" height="49.44" rx="8.48" ry="8.48"/><circle class="o" cx="145.68" cy="191.82" r=".52"/><rect class="o" x="89.87" y="153.81" width="21.84" height="49.44" rx="8.48" ry="8.48"/><circle class="o" cx="101.55" cy="191.82" r=".52"/></g></g></g></g></svg>